<?xml version="1.0" encoding="UTF-8"?>
<svg xmlns:xhtml="http://www.w3.org/1999/xhtml" xmlns:xlink="http://www.w3.org/1999/xlink" id="mermaid-svg-25" width="100%" xmlns="http://www.w3.org/2000/svg" class="erDiagram" style="max-width: 100%;" viewBox="-36.557498168945315 -36.557498168945315 1293.5607971191407 804.264959716797" height="100%"><style>#mermaid-svg-25{font-family:"trebuchet ms",verdana,arial,sans-serif;font-size:16px;fill:#333;}@keyframes edge-animation-frame{from{stroke-dashoffset:0;}}@keyframes dash{to{stroke-dashoffset:0;}}#mermaid-svg-25 .edge-animation-slow{stroke-dasharray:9,5!important;stroke-dashoffset:900;animation:dash 50s linear infinite;stroke-linecap:round;}#mermaid-svg-25 .edge-animation-fast{stroke-dasharray:9,5!important;stroke-dashoffset:900;animation:dash 20s linear infinite;stroke-linecap:round;}#mermaid-svg-25 .error-icon{fill:#552222;}#mermaid-svg-25 .error-text{fill:#552222;stroke:#552222;}#mermaid-svg-25 .edge-thickness-normal{stroke-width:1px;}#mermaid-svg-25 .edge-thickness-thick{stroke-width:3.5px;}#mermaid-svg-25 .edge-pattern-solid{stroke-dasharray:0;}#mermaid-svg-25 .edge-thickness-invisible{stroke-width:0;fill:none;}#mermaid-svg-25 .edge-pattern-dashed{stroke-dasharray:3;}#mermaid-svg-25 .edge-pattern-dotted{stroke-dasharray:2;}#mermaid-svg-25 .marker{fill:#333333;stroke:#333333;}#mermaid-svg-25 .marker.cross{stroke:#333333;}#mermaid-svg-25 svg{font-family:"trebuchet ms",verdana,arial,sans-serif;font-size:16px;}#mermaid-svg-25 p{margin:0;}#mermaid-svg-25 .entityBox{fill:#ECECFF;stroke:#9370DB;}#mermaid-svg-25 .relationshipLabelBox{fill:hsl(80, 100%, 96.2745098039%);opacity:0.7;background-color:hsl(80, 100%, 96.2745098039%);}#mermaid-svg-25 .relationshipLabelBox rect{opacity:0.5;}#mermaid-svg-25 .labelBkg{background-color:rgba(248.6666666666, 255, 235.9999999999, 0.5);}#mermaid-svg-25 .edgeLabel .label{fill:#9370DB;font-size:14px;}#mermaid-svg-25 .label{font-family:"trebuchet ms",verdana,arial,sans-serif;color:#333;}#mermaid-svg-25 .edge-pattern-dashed{stroke-dasharray:8,8;}#mermaid-svg-25 .node rect,#mermaid-svg-25 .node circle,#mermaid-svg-25 .node ellipse,#mermaid-svg-25 .node polygon{fill:#ECECFF;stroke:#9370DB;stroke-width:1px;}#mermaid-svg-25 .relationshipLine{stroke:#333333;stroke-width:1;fill:none;}#mermaid-svg-25 .marker{fill:none!important;stroke:#333333!important;stroke-width:1;}#mermaid-svg-25 :root{--mermaid-font-family:"trebuchet ms",verdana,arial,sans-serif;}</style><g><defs><marker id="mermaid-svg-25_er-onlyOneStart" class="marker onlyOne er" refX="0" refY="9" markerWidth="18" markerHeight="18" orient="auto"><path d="M9,0 L9,18 M15,0 L15,18"/></marker></defs><defs><marker id="mermaid-svg-25_er-onlyOneEnd" class="marker onlyOne er" refX="18" refY="9" markerWidth="18" markerHeight="18" orient="auto"><path d="M3,0 L3,18 M9,0 L9,18"/></marker></defs><defs><marker id="mermaid-svg-25_er-zeroOrOneStart" class="marker zeroOrOne er" refX="0" refY="9" markerWidth="30" markerHeight="18" orient="auto"><circle fill="white" cx="21" cy="9" r="6"/><path d="M9,0 L9,18"/></marker></defs><defs><marker id="mermaid-svg-25_er-zeroOrOneEnd" class="marker zeroOrOne er" refX="30" refY="9" markerWidth="30" markerHeight="18" orient="auto"><circle fill="white" cx="9" cy="9" r="6"/><path d="M21,0 L21,18"/></marker></defs><defs><marker id="mermaid-svg-25_er-oneOrMoreStart" class="marker oneOrMore er" refX="18" refY="18" markerWidth="45" markerHeight="36" orient="auto"><path d="M0,18 Q 18,0 36,18 Q 18,36 0,18 M42,9 L42,27"/></marker></defs><defs><marker id="mermaid-svg-25_er-oneOrMoreEnd" class="marker oneOrMore er" refX="27" refY="18" markerWidth="45" markerHeight="36" orient="auto"><path d="M3,9 L3,27 M9,18 Q27,0 45,18 Q27,36 9,18"/></marker></defs><defs><marker id="mermaid-svg-25_er-zeroOrMoreStart" class="marker zeroOrMore er" refX="18" refY="18" markerWidth="57" markerHeight="36" orient="auto"><circle fill="white" cx="48" cy="18" r="6"/><path d="M0,18 Q18,0 36,18 Q18,36 0,18"/></marker></defs><defs><marker id="mermaid-svg-25_er-zeroOrMoreEnd" class="marker zeroOrMore er" refX="39" refY="18" markerWidth="57" markerHeight="36" orient="auto"><circle fill="white" cx="9" cy="18" r="6"/><path d="M21,18 Q39,0 57,18 Q39,36 21,18"/></marker></defs><g class="root"><g class="clusters"/><g class="edgePaths"><path d="M589.781,285.875L578.731,297.854C567.681,309.833,545.58,333.792,493.352,362.767C441.125,391.743,358.771,425.736,317.594,442.732L276.417,459.729" id="id_entity-access-0_entity-access_roles-1_0" class="edge-thickness-normal edge-pattern-solid relationshipLine" style="" marker-start="url(#mermaid-svg-25_er-onlyOneStart)" marker-end="url(#mermaid-svg-25_er-zeroOrMoreEnd)"/><path d="M191.731,243.125L176.699,262.229C161.668,281.333,131.605,319.542,118.748,347.063C105.891,374.583,110.241,391.417,112.416,399.833L114.591,408.25" id="id_entity-roles-2_entity-access_roles-1_1" class="edge-thickness-normal edge-pattern-solid relationshipLine" style="" marker-start="url(#mermaid-svg-25_er-onlyOneStart)" marker-end="url(#mermaid-svg-25_er-zeroOrMoreEnd)"/><path d="M354.622,243.125L375.987,262.229C397.352,281.333,440.082,319.542,465.074,347.063C490.066,374.583,497.319,391.417,500.946,399.833L504.573,408.25" id="id_entity-roles-2_entity-roles_users-3_2" class="edge-thickness-normal edge-pattern-solid relationshipLine" style="" marker-start="url(#mermaid-svg-25_er-onlyOneStart)" marker-end="url(#mermaid-svg-25_er-zeroOrMoreEnd)"/><path d="M1097.737,307.25L1097.737,315.667C1097.737,324.083,1097.737,340.917,1028.92,369.128C960.103,397.34,822.468,436.93,753.651,456.725L684.833,476.52" id="id_entity-users-4_entity-roles_users-3_3" class="edge-thickness-normal edge-pattern-solid relationshipLine" style="" marker-start="url(#mermaid-svg-25_er-onlyOneStart)" marker-end="url(#mermaid-svg-25_er-zeroOrMoreEnd)"/><path d="M782.936,285.875L789.927,297.854C796.918,309.833,810.901,333.792,817.892,371.992C824.883,410.192,824.883,462.633,824.883,488.854L824.883,515.075" id="entity-access-0-cyclic-special-1" class="edge-thickness-normal edge-pattern-solid relationshipLine" style="" marker-start="url(#mermaid-svg-25_er-onlyOneStart)"/><path d="M824.883,515.175L824.883,541.396C824.883,567.617,824.883,620.058,831.548,654.696C838.212,689.333,851.54,706.167,858.204,714.583L864.869,723" id="entity-access-0-cyclic-special-mid" class="edge-thickness-normal edge-pattern-solid relationshipLine" style=""/><path d="M864.958,723.01L875.427,714.591C885.896,706.173,906.833,689.337,917.302,654.689C927.771,620.042,927.771,567.583,927.771,515.125C927.771,462.667,927.771,410.208,913.647,371.113C899.524,332.018,871.276,306.285,857.153,293.419L843.029,280.553" id="entity-access-0-cyclic-special-2" class="edge-thickness-normal edge-pattern-solid relationshipLine" style="" marker-end="url(#mermaid-svg-25_er-zeroOrMoreEnd)"/></g><g class="edgeLabels"><g class="edgeLabel" transform="translate(445.14202, 390.08478)"><g class="label" transform="translate(-10.333335876464844, -10.5)"><foreignObject width="20.666671752929688" height="21"><div style="display: table-cell; white-space: nowrap; line-height: 1.5; max-width: 200px; text-align: center;" xmlns="http://www.w3.org/1999/xhtml" class="labelBkg"><span class="edgeLabel"><p>has</p></span></div></foreignObject></g></g><g class="edgeLabel" transform="translate(130.50989, 320.93319)"><g class="label" transform="translate(-10.333335876464844, -10.5)"><foreignObject width="20.666671752929688" height="21"><div style="display: table-cell; white-space: nowrap; line-height: 1.5; max-width: 200px; text-align: center;" xmlns="http://www.w3.org/1999/xhtml" class="labelBkg"><span class="edgeLabel"><p>has</p></span></div></foreignObject></g></g><g class="edgeLabel" transform="translate(439.21308, 318.76427)"><g class="label" transform="translate(-10.333335876464844, -10.5)"><foreignObject width="20.666671752929688" height="21"><div style="display: table-cell; white-space: nowrap; line-height: 1.5; max-width: 200px; text-align: center;" xmlns="http://www.w3.org/1999/xhtml" class="labelBkg"><span class="edgeLabel"><p>has</p></span></div></foreignObject></g></g><g class="edgeLabel" transform="translate(1097.7374862674624, 357.75)"><g class="label" transform="translate(-10.333335876464844, -10.5)"><foreignObject width="20.666671752929688" height="21"><div style="display: table-cell; white-space: nowrap; line-height: 1.5; max-width: 200px; text-align: center;" xmlns="http://www.w3.org/1999/xhtml" class="labelBkg"><span class="edgeLabel"><p>has</p></span></div></foreignObject></g></g><g class="edgeLabel"><g class="label" transform="translate(0, 0)"><foreignObject width="0" height="0"><div style="display: table-cell; white-space: nowrap; line-height: 1.5; max-width: 200px; text-align: center;" xmlns="http://www.w3.org/1999/xhtml" class="labelBkg"><span class="edgeLabel"></span></div></foreignObject></g></g><g class="edgeLabel" transform="translate(824.8833129890263, 672.5)"><g class="label" transform="translate(-38.53333282470703, -10.5)"><foreignObject width="77.06666564941406" height="21"><div style="display: table-cell; white-space: nowrap; line-height: 1.5; max-width: 200px; text-align: center;" xmlns="http://www.w3.org/1999/xhtml" class="labelBkg"><span class="edgeLabel"><p>parent-child</p></span></div></foreignObject></g></g><g class="edgeLabel"><g class="label" transform="translate(0, 0)"><foreignObject width="0" height="0"><div style="display: table-cell; white-space: nowrap; line-height: 1.5; max-width: 200px; text-align: center;" xmlns="http://www.w3.org/1999/xhtml" class="labelBkg"><span class="edgeLabel"></span></div></foreignObject></g></g></g><g class="nodes"><g class="node default" id="entity-access-0" transform="translate(708.0874847415835, 157.625)"><g style=""><path d="M-134.94166564941406 -128.25 L134.94166564941406 -128.25 L134.94166564941406 128.25 L-134.94166564941406 128.25" stroke="none" stroke-width="0" fill="#ECECFF"/><path d="M-134.94166564941406 -128.25 C-57.39446090116269 -128.25, 20.152743847088686 -128.25, 134.94166564941406 -128.25 M-134.94166564941406 -128.25 C-74.40874275267689 -128.25, -13.875819855939696 -128.25, 134.94166564941406 -128.25 M134.94166564941406 -128.25 C134.94166564941406 -43.316170560687596, 134.94166564941406 41.61765887862481, 134.94166564941406 128.25 M134.94166564941406 -128.25 C134.94166564941406 -62.07610748980758, 134.94166564941406 4.097785020384833, 134.94166564941406 128.25 M134.94166564941406 128.25 C71.51009012814839 128.25, 8.078514606882706 128.25, -134.94166564941406 128.25 M134.94166564941406 128.25 C32.874939553556075 128.25, -69.19178654230191 128.25, -134.94166564941406 128.25 M-134.94166564941406 128.25 C-134.94166564941406 49.595790888242334, -134.94166564941406 -29.058418223515332, -134.94166564941406 -128.25 M-134.94166564941406 128.25 C-134.94166564941406 29.054747182159844, -134.94166564941406 -70.14050563568031, -134.94166564941406 -128.25" stroke="#9370DB" stroke-width="1.3" fill="none" stroke-dasharray="0 0"/></g><g style="" class="row-rect-odd"><path d="M-134.94166564941406 -85.5 L134.94166564941406 -85.5 L134.94166564941406 -42.75 L-134.94166564941406 -42.75" stroke="none" stroke-width="0" fill="hsl(240, 100%, 100%)"/><path d="M-134.94166564941406 -85.5 C-49.992470160620826 -85.5, 34.95672532817241 -85.5, 134.94166564941406 -85.5 M-134.94166564941406 -85.5 C-59.653533775422446 -85.5, 15.634598098569171 -85.5, 134.94166564941406 -85.5 M134.94166564941406 -85.5 C134.94166564941406 -76.7082464089628, 134.94166564941406 -67.91649281792559, 134.94166564941406 -42.75 M134.94166564941406 -85.5 C134.94166564941406 -76.22814565496768, 134.94166564941406 -66.95629130993537, 134.94166564941406 -42.75 M134.94166564941406 -42.75 C74.93286652609065 -42.75, 14.924067402767236 -42.75, -134.94166564941406 -42.75 M134.94166564941406 -42.75 C42.81654545863739 -42.75, -49.30857473213928 -42.75, -134.94166564941406 -42.75 M-134.94166564941406 -42.75 C-134.94166564941406 -56.949456414021554, -134.94166564941406 -71.14891282804311, -134.94166564941406 -85.5 M-134.94166564941406 -42.75 C-134.94166564941406 -59.6054758056397, -134.94166564941406 -76.4609516112794, -134.94166564941406 -85.5" stroke="#9370DB" stroke-width="1.3" fill="none" stroke-dasharray="0 0"/></g><g style="" class="row-rect-even"><path d="M-134.94166564941406 -42.75 L134.94166564941406 -42.75 L134.94166564941406 0 L-134.94166564941406 0" stroke="none" stroke-width="0" fill="hsl(240, 100%, 97.2745098039%)"/><path d="M-134.94166564941406 -42.75 C-40.964561158802866 -42.75, 53.01254333180833 -42.75, 134.94166564941406 -42.75 M-134.94166564941406 -42.75 C-58.41885423931733 -42.75, 18.10395717077941 -42.75, 134.94166564941406 -42.75 M134.94166564941406 -42.75 C134.94166564941406 -28.26420781268271, 134.94166564941406 -13.778415625365419, 134.94166564941406 0 M134.94166564941406 -42.75 C134.94166564941406 -26.2760860808482, 134.94166564941406 -9.802172161696397, 134.94166564941406 0 M134.94166564941406 0 C80.34917811529573 0, 25.756690581177395 0, -134.94166564941406 0 M134.94166564941406 0 C34.319953598967146 0, -66.30175845147977 0, -134.94166564941406 0 M-134.94166564941406 0 C-134.94166564941406 -16.6770140958162, -134.94166564941406 -33.3540281916324, -134.94166564941406 -42.75 M-134.94166564941406 0 C-134.94166564941406 -16.634673904706727, -134.94166564941406 -33.26934780941345, -134.94166564941406 -42.75" stroke="#9370DB" stroke-width="1.3" fill="none" stroke-dasharray="0 0"/></g><g style="" class="row-rect-odd"><path d="M-134.94166564941406 0 L134.94166564941406 0 L134.94166564941406 42.75 L-134.94166564941406 42.75" stroke="none" stroke-width="0" fill="hsl(240, 100%, 100%)"/><path d="M-134.94166564941406 0 C-42.64151004139684 0, 49.65864556662038 0, 134.94166564941406 0 M-134.94166564941406 0 C-77.39460171678635 0, -19.84753778415866 0, 134.94166564941406 0 M134.94166564941406 0 C134.94166564941406 10.287398275285078, 134.94166564941406 20.574796550570156, 134.94166564941406 42.75 M134.94166564941406 0 C134.94166564941406 16.23733439400965, 134.94166564941406 32.4746687880193, 134.94166564941406 42.75 M134.94166564941406 42.75 C30.667089468705555 42.75, -73.60748671200295 42.75, -134.94166564941406 42.75 M134.94166564941406 42.75 C77.28064048589033 42.75, 19.619615322366585 42.75, -134.94166564941406 42.75 M-134.94166564941406 42.75 C-134.94166564941406 28.630658717795512, -134.94166564941406 14.511317435591028, -134.94166564941406 0 M-134.94166564941406 42.75 C-134.94166564941406 27.89334963547621, -134.94166564941406 13.036699270952418, -134.94166564941406 0" stroke="#9370DB" stroke-width="1.3" fill="none" stroke-dasharray="0 0"/></g><g style="" class="row-rect-even"><path d="M-134.94166564941406 42.75 L134.94166564941406 42.75 L134.94166564941406 85.5 L-134.94166564941406 85.5" stroke="none" stroke-width="0" fill="hsl(240, 100%, 97.2745098039%)"/><path d="M-134.94166564941406 42.75 C-58.4885638606753 42.75, 17.964537928063464 42.75, 134.94166564941406 42.75 M-134.94166564941406 42.75 C-35.93971194143435 42.75, 63.062241766545355 42.75, 134.94166564941406 42.75 M134.94166564941406 42.75 C134.94166564941406 53.07027634480605, 134.94166564941406 63.39055268961209, 134.94166564941406 85.5 M134.94166564941406 42.75 C134.94166564941406 53.61794580888544, 134.94166564941406 64.48589161777087, 134.94166564941406 85.5 M134.94166564941406 85.5 C49.80314737650363 85.5, -35.3353708964068 85.5, -134.94166564941406 85.5 M134.94166564941406 85.5 C63.315030802298864 85.5, -8.311604044816335 85.5, -134.94166564941406 85.5 M-134.94166564941406 85.5 C-134.94166564941406 70.91091865776146, -134.94166564941406 56.32183731552293, -134.94166564941406 42.75 M-134.94166564941406 85.5 C-134.94166564941406 70.97828141532533, -134.94166564941406 56.45656283065065, -134.94166564941406 42.75" stroke="#9370DB" stroke-width="1.3" fill="none" stroke-dasharray="0 0"/></g><g style="" class="row-rect-odd"><path d="M-134.94166564941406 85.5 L134.94166564941406 85.5 L134.94166564941406 128.25 L-134.94166564941406 128.25" stroke="none" stroke-width="0" fill="hsl(240, 100%, 100%)"/><path d="M-134.94166564941406 85.5 C-53.484213154910066 85.5, 27.97323933959393 85.5, 134.94166564941406 85.5 M-134.94166564941406 85.5 C-51.97576092311368 85.5, 30.990143803186697 85.5, 134.94166564941406 85.5 M134.94166564941406 85.5 C134.94166564941406 95.27511489284686, 134.94166564941406 105.05022978569373, 134.94166564941406 128.25 M134.94166564941406 85.5 C134.94166564941406 95.36703023369498, 134.94166564941406 105.23406046738995, 134.94166564941406 128.25 M134.94166564941406 128.25 C48.98901928530941 128.25, -36.96362707879524 128.25, -134.94166564941406 128.25 M134.94166564941406 128.25 C49.19152764504018 128.25, -36.5586103593337 128.25, -134.94166564941406 128.25 M-134.94166564941406 128.25 C-134.94166564941406 113.11697361272495, -134.94166564941406 97.9839472254499, -134.94166564941406 85.5 M-134.94166564941406 128.25 C-134.94166564941406 112.03358660775942, -134.94166564941406 95.81717321551885, -134.94166564941406 85.5" stroke="#9370DB" stroke-width="1.3" fill="none" stroke-dasharray="0 0"/></g><g class="label name" transform="translate(-22.96666717529297, -118.875)" style=""><foreignObject width="45.93333435058594" height="24"><div style="display: table-cell; white-space: nowrap; line-height: 1.5; max-width: 155px; text-align: start;" xmlns="http://www.w3.org/1999/xhtml"><span class="nodeLabel"><p>access</p></span></div></foreignObject></g><g class="label attribute-type" transform="translate(-122.44166564941406, -76.125)" style=""><foreignObject width="47.56666564941406" height="24"><div style="display: table-cell; white-space: nowrap; line-height: 1.5; max-width: 157px; text-align: start;" xmlns="http://www.w3.org/1999/xhtml"><span class="nodeLabel"><p>SERIAL</p></span></div></foreignObject></g><g class="label attribute-name" transform="translate(-0.5583343505859375, -76.125)" style=""><foreignObject width="13.48333740234375" height="24"><div style="display: table-cell; white-space: nowrap; line-height: 1.5; max-width: 116px; text-align: start;" xmlns="http://www.w3.org/1999/xhtml"><span class="nodeLabel"><p>id</p></span></div></foreignObject></g><g class="label attribute-keys" transform="translate(102.84165954589844, -76.125)" style=""><foreignObject width="18.133331298828125" height="24"><div style="display: table-cell; white-space: nowrap; line-height: 1.5; max-width: 123px; text-align: start;" xmlns="http://www.w3.org/1999/xhtml"><span class="nodeLabel"><p>PK</p></span></div></foreignObject></g><g class="label attribute-comment" transform="translate(147.44166564941406, -76.125)" style=""><foreignObject width="0" height="0"><div style="display: table-cell; white-space: nowrap; line-height: 1.5; max-width: 100px; text-align: start;" xmlns="http://www.w3.org/1999/xhtml"><span class="nodeLabel"></span></div></foreignObject></g><g class="label attribute-type" transform="translate(-122.44166564941406, -33.375)" style=""><foreignObject width="61.21665954589844" height="24"><div style="display: table-cell; white-space: nowrap; line-height: 1.5; max-width: 170px; text-align: start;" xmlns="http://www.w3.org/1999/xhtml"><span class="nodeLabel"><p>INTEGER</p></span></div></foreignObject></g><g class="label attribute-name" transform="translate(-0.5583343505859375, -33.375)" style=""><foreignObject width="69.23333740234375" height="24"><div style="display: table-cell; white-space: nowrap; line-height: 1.5; max-width: 172px; text-align: start;" xmlns="http://www.w3.org/1999/xhtml"><span class="nodeLabel"><p>parent_id</p></span></div></foreignObject></g><g class="label attribute-keys" transform="translate(102.84165954589844, -33.375)" style=""><foreignObject width="17.616668701171875" height="24"><div style="display: table-cell; white-space: nowrap; line-height: 1.5; max-width: 122px; text-align: start;" xmlns="http://www.w3.org/1999/xhtml"><span class="nodeLabel"><p>FK</p></span></div></foreignObject></g><g class="label attribute-comment" transform="translate(147.44166564941406, -33.375)" style=""><foreignObject width="0" height="0"><div style="display: table-cell; white-space: nowrap; line-height: 1.5; max-width: 100px; text-align: start;" xmlns="http://www.w3.org/1999/xhtml"><span class="nodeLabel"></span></div></foreignObject></g><g class="label attribute-type" transform="translate(-122.44166564941406, 9.375)" style=""><foreignObject width="65.30000305175781" height="24"><div style="display: table-cell; white-space: nowrap; line-height: 1.5; max-width: 178px; text-align: start;" xmlns="http://www.w3.org/1999/xhtml"><span class="nodeLabel"><p>VARCHAR</p></span></div></foreignObject></g><g class="label attribute-name" transform="translate(-0.5583343505859375, 9.375)" style=""><foreignObject width="39.16667175292969" height="24"><div style="display: table-cell; white-space: nowrap; line-height: 1.5; max-width: 144px; text-align: start;" xmlns="http://www.w3.org/1999/xhtml"><span class="nodeLabel"><p>name</p></span></div></foreignObject></g><g class="label attribute-keys" transform="translate(102.84165954589844, 9.375)" style=""><foreignObject width="19.600006103515625" height="24"><div style="display: table-cell; white-space: nowrap; line-height: 1.5; max-width: 125px; text-align: start;" xmlns="http://www.w3.org/1999/xhtml"><span class="nodeLabel"><p>UK</p></span></div></foreignObject></g><g class="label attribute-comment" transform="translate(147.44166564941406, 9.375)" style=""><foreignObject width="0" height="0"><div style="display: table-cell; white-space: nowrap; line-height: 1.5; max-width: 100px; text-align: start;" xmlns="http://www.w3.org/1999/xhtml"><span class="nodeLabel"></span></div></foreignObject></g><g class="label attribute-type" transform="translate(-122.44166564941406, 52.125)" style=""><foreignObject width="65.30000305175781" height="24"><div style="display: table-cell; white-space: nowrap; line-height: 1.5; max-width: 178px; text-align: start;" xmlns="http://www.w3.org/1999/xhtml"><span class="nodeLabel"><p>VARCHAR</p></span></div></foreignObject></g><g class="label attribute-name" transform="translate(-0.5583343505859375, 52.125)" style=""><foreignObject width="32.56666564941406" height="24"><div style="display: table-cell; white-space: nowrap; line-height: 1.5; max-width: 136px; text-align: start;" xmlns="http://www.w3.org/1999/xhtml"><span class="nodeLabel"><p>alias</p></span></div></foreignObject></g><g class="label attribute-keys" transform="translate(102.84165954589844, 52.125)" style=""><foreignObject width="19.600006103515625" height="24"><div style="display: table-cell; white-space: nowrap; line-height: 1.5; max-width: 125px; text-align: start;" xmlns="http://www.w3.org/1999/xhtml"><span class="nodeLabel"><p>UK</p></span></div></foreignObject></g><g class="label attribute-comment" transform="translate(147.44166564941406, 52.125)" style=""><foreignObject width="0" height="0"><div style="display: table-cell; white-space: nowrap; line-height: 1.5; max-width: 100px; text-align: start;" xmlns="http://www.w3.org/1999/xhtml"><span class="nodeLabel"></span></div></foreignObject></g><g class="label attribute-type" transform="translate(-122.44166564941406, 94.875)" style=""><foreignObject width="96.88333129882812" height="24"><div style="display: table-cell; white-space: nowrap; line-height: 1.5; max-width: 216px; text-align: start;" xmlns="http://www.w3.org/1999/xhtml"><span class="nodeLabel"><p>TIMESTAMPTZ</p></span></div></foreignObject></g><g class="label attribute-name" transform="translate(-0.5583343505859375, 94.875)" style=""><foreignObject width="78.39999389648438" height="24"><div style="display: table-cell; white-space: nowrap; line-height: 1.5; max-width: 181px; text-align: start;" xmlns="http://www.w3.org/1999/xhtml"><span class="nodeLabel"><p>created_at</p></span></div></foreignObject></g><g class="label attribute-keys" transform="translate(102.84165954589844, 94.875)" style=""><foreignObject width="0" height="0"><div style="display: table-cell; white-space: nowrap; line-height: 1.5; max-width: 100px; text-align: start;" xmlns="http://www.w3.org/1999/xhtml"><span class="nodeLabel"></span></div></foreignObject></g><g class="label attribute-comment" transform="translate(147.44166564941406, 94.875)" style=""><foreignObject width="0" height="0"><div style="display: table-cell; white-space: nowrap; line-height: 1.5; max-width: 100px; text-align: start;" xmlns="http://www.w3.org/1999/xhtml"><span class="nodeLabel"></span></div></foreignObject></g><g class="divider"><path d="M-134.94166564941406 -85.5 C-72.29152626644526 -85.5, -9.641386883476471 -85.5, 134.94166564941406 -85.5 M-134.94166564941406 -85.5 C-53.16073885908753 -85.5, 28.620187931239002 -85.5, 134.94166564941406 -85.5" stroke="#9370DB" stroke-width="1.3" fill="none" stroke-dasharray="0 0"/></g><g class="divider"><path d="M-13.058334350585938 -85.5 C-13.058334350585938 -26.017032225740024, -13.058334350585938 33.46593554851995, -13.058334350585938 128.25 M-13.058334350585938 -85.5 C-13.058334350585938 -16.923423521282558, -13.058334350585938 51.653152957434884, -13.058334350585938 128.25" stroke="#9370DB" stroke-width="1.3" fill="none" stroke-dasharray="0 0"/></g><g class="divider"><path d="M90.34165954589844 -85.5 C90.34165954589844 -11.905481186884103, 90.34165954589844 61.689037626231794, 90.34165954589844 128.25 M90.34165954589844 -85.5 C90.34165954589844 -11.454467351187375, 90.34165954589844 62.59106529762525, 90.34165954589844 128.25" stroke="#9370DB" stroke-width="1.3" fill="none" stroke-dasharray="0 0"/></g><g class="divider"><path d="M-134.94166564941406 -85.5 C-63.82712823520711 -85.5, 7.287409178999837 -85.5, 134.94166564941406 -85.5 M-134.94166564941406 -85.5 C-46.15896541826204 -85.5, 42.62373481288998 -85.5, 134.94166564941406 -85.5" stroke="#9370DB" stroke-width="1.3" fill="none" stroke-dasharray="0 0"/></g></g><g class="node default" id="entity-access_roles-1" transform="translate(142.2083282470703, 515.125)"><g style=""><path d="M-134.2083282470703 -106.875 L134.2083282470703 -106.875 L134.2083282470703 106.875 L-134.2083282470703 106.875" stroke="none" stroke-width="0" fill="#ECECFF"/><path d="M-134.2083282470703 -106.875 C-70.18435791373166 -106.875, -6.160387580393007 -106.875, 134.2083282470703 -106.875 M-134.2083282470703 -106.875 C-30.613083563420744 -106.875, 72.98216112022882 -106.875, 134.2083282470703 -106.875 M134.2083282470703 -106.875 C134.2083282470703 -57.80381793032819, 134.2083282470703 -8.732635860656373, 134.2083282470703 106.875 M134.2083282470703 -106.875 C134.2083282470703 -30.07714450297503, 134.2083282470703 46.72071099404994, 134.2083282470703 106.875 M134.2083282470703 106.875 C71.90782296938744 106.875, 9.607317691704552 106.875, -134.2083282470703 106.875 M134.2083282470703 106.875 C77.63735580729482 106.875, 21.06638336751935 106.875, -134.2083282470703 106.875 M-134.2083282470703 106.875 C-134.2083282470703 48.1893762899903, -134.2083282470703 -10.496247420019401, -134.2083282470703 -106.875 M-134.2083282470703 106.875 C-134.2083282470703 59.681568019967656, -134.2083282470703 12.488136039935313, -134.2083282470703 -106.875" stroke="#9370DB" stroke-width="1.3" fill="none" stroke-dasharray="0 0"/></g><g style="" class="row-rect-odd"><path d="M-134.2083282470703 -64.125 L134.2083282470703 -64.125 L134.2083282470703 -21.375 L-134.2083282470703 -21.375" stroke="none" stroke-width="0" fill="hsl(240, 100%, 100%)"/><path d="M-134.2083282470703 -64.125 C-51.76126747169113 -64.125, 30.685793303688058 -64.125, 134.2083282470703 -64.125 M-134.2083282470703 -64.125 C-30.45354323972161 -64.125, 73.30124176762709 -64.125, 134.2083282470703 -64.125 M134.2083282470703 -64.125 C134.2083282470703 -51.91165403346304, 134.2083282470703 -39.69830806692608, 134.2083282470703 -21.375 M134.2083282470703 -64.125 C134.2083282470703 -53.391771832410825, 134.2083282470703 -42.65854366482166, 134.2083282470703 -21.375 M134.2083282470703 -21.375 C47.97011771069124 -21.375, -38.26809282568783 -21.375, -134.2083282470703 -21.375 M134.2083282470703 -21.375 C73.91307790689163 -21.375, 13.617827566712961 -21.375, -134.2083282470703 -21.375 M-134.2083282470703 -21.375 C-134.2083282470703 -30.79393194948524, -134.2083282470703 -40.21286389897048, -134.2083282470703 -64.125 M-134.2083282470703 -21.375 C-134.2083282470703 -30.60962472792268, -134.2083282470703 -39.84424945584536, -134.2083282470703 -64.125" stroke="#9370DB" stroke-width="1.3" fill="none" stroke-dasharray="0 0"/></g><g style="" class="row-rect-even"><path d="M-134.2083282470703 -21.375 L134.2083282470703 -21.375 L134.2083282470703 21.375 L-134.2083282470703 21.375" stroke="none" stroke-width="0" fill="hsl(240, 100%, 97.2745098039%)"/><path d="M-134.2083282470703 -21.375 C-69.31518490756025 -21.375, -4.42204156805019 -21.375, 134.2083282470703 -21.375 M-134.2083282470703 -21.375 C-58.5217675652687 -21.375, 17.164793116532906 -21.375, 134.2083282470703 -21.375 M134.2083282470703 -21.375 C134.2083282470703 -11.4857985404612, 134.2083282470703 -1.5965970809224004, 134.2083282470703 21.375 M134.2083282470703 -21.375 C134.2083282470703 -12.59129519062634, 134.2083282470703 -3.8075903812526803, 134.2083282470703 21.375 M134.2083282470703 21.375 C48.19897125297469 21.375, -37.81038574112094 21.375, -134.2083282470703 21.375 M134.2083282470703 21.375 C37.59133416416877 21.375, -59.02565991873277 21.375, -134.2083282470703 21.375 M-134.2083282470703 21.375 C-134.2083282470703 7.832963478665375, -134.2083282470703 -5.7090730426692495, -134.2083282470703 -21.375 M-134.2083282470703 21.375 C-134.2083282470703 4.741759265146591, -134.2083282470703 -11.891481469706818, -134.2083282470703 -21.375" stroke="#9370DB" stroke-width="1.3" fill="none" stroke-dasharray="0 0"/></g><g style="" class="row-rect-odd"><path d="M-134.2083282470703 21.375 L134.2083282470703 21.375 L134.2083282470703 64.125 L-134.2083282470703 64.125" stroke="none" stroke-width="0" fill="hsl(240, 100%, 100%)"/><path d="M-134.2083282470703 21.375 C-71.47983136784723 21.375, -8.751334488624153 21.375, 134.2083282470703 21.375 M-134.2083282470703 21.375 C-64.20137671196619 21.375, 5.805574823137931 21.375, 134.2083282470703 21.375 M134.2083282470703 21.375 C134.2083282470703 35.39239933294799, 134.2083282470703 49.40979866589598, 134.2083282470703 64.125 M134.2083282470703 21.375 C134.2083282470703 33.42493787195914, 134.2083282470703 45.474875743918275, 134.2083282470703 64.125 M134.2083282470703 64.125 C61.05884025425321 64.125, -12.090647738563888 64.125, -134.2083282470703 64.125 M134.2083282470703 64.125 C43.09828733777533 64.125, -48.01175357151965 64.125, -134.2083282470703 64.125 M-134.2083282470703 64.125 C-134.2083282470703 51.99920916466893, -134.2083282470703 39.873418329337866, -134.2083282470703 21.375 M-134.2083282470703 64.125 C-134.2083282470703 52.59209858489989, -134.2083282470703 41.059197169799766, -134.2083282470703 21.375" stroke="#9370DB" stroke-width="1.3" fill="none" stroke-dasharray="0 0"/></g><g style="" class="row-rect-even"><path d="M-134.2083282470703 64.125 L134.2083282470703 64.125 L134.2083282470703 106.875 L-134.2083282470703 106.875" stroke="none" stroke-width="0" fill="hsl(240, 100%, 97.2745098039%)"/><path d="M-134.2083282470703 64.125 C-55.925025252309396 64.125, 22.35827774245152 64.125, 134.2083282470703 64.125 M-134.2083282470703 64.125 C-50.714061625705966 64.125, 32.78020499565838 64.125, 134.2083282470703 64.125 M134.2083282470703 64.125 C134.2083282470703 73.16650812097876, 134.2083282470703 82.20801624195752, 134.2083282470703 106.875 M134.2083282470703 64.125 C134.2083282470703 75.25691805371738, 134.2083282470703 86.38883610743477, 134.2083282470703 106.875 M134.2083282470703 106.875 C69.74319740897386 106.875, 5.2780665708773995 106.875, -134.2083282470703 106.875 M134.2083282470703 106.875 C35.73158017928387 106.875, -62.74516788850258 106.875, -134.2083282470703 106.875 M-134.2083282470703 106.875 C-134.2083282470703 98.01077779801233, -134.2083282470703 89.14655559602464, -134.2083282470703 64.125 M-134.2083282470703 106.875 C-134.2083282470703 92.58297357893845, -134.2083282470703 78.29094715787689, -134.2083282470703 64.125" stroke="#9370DB" stroke-width="1.3" fill="none" stroke-dasharray="0 0"/></g><g class="label name" transform="translate(-44.525001525878906, -97.5)" style=""><foreignObject width="89.05000305175781" height="24"><div style="display: table-cell; white-space: nowrap; line-height: 1.5; max-width: 200px; text-align: start;" xmlns="http://www.w3.org/1999/xhtml"><span class="nodeLabel"><p>access_roles</p></span></div></foreignObject></g><g class="label attribute-type" transform="translate(-121.70832824707031, -54.75)" style=""><foreignObject width="47.56666564941406" height="24"><div style="display: table-cell; white-space: nowrap; line-height: 1.5; max-width: 157px; text-align: start;" xmlns="http://www.w3.org/1999/xhtml"><span class="nodeLabel"><p>SERIAL</p></span></div></foreignObject></g><g class="label attribute-name" transform="translate(0.1750030517578125, -54.75)" style=""><foreignObject width="13.48333740234375" height="24"><div style="display: table-cell; white-space: nowrap; line-height: 1.5; max-width: 116px; text-align: start;" xmlns="http://www.w3.org/1999/xhtml"><span class="nodeLabel"><p>id</p></span></div></foreignObject></g><g class="label attribute-keys" transform="translate(103.57499694824219, -54.75)" style=""><foreignObject width="18.133331298828125" height="24"><div style="display: table-cell; white-space: nowrap; line-height: 1.5; max-width: 123px; text-align: start;" xmlns="http://www.w3.org/1999/xhtml"><span class="nodeLabel"><p>PK</p></span></div></foreignObject></g><g class="label attribute-comment" transform="translate(146.7083282470703, -54.75)" style=""><foreignObject width="0" height="0"><div style="display: table-cell; white-space: nowrap; line-height: 1.5; max-width: 100px; text-align: start;" xmlns="http://www.w3.org/1999/xhtml"><span class="nodeLabel"></span></div></foreignObject></g><g class="label attribute-type" transform="translate(-121.70832824707031, -12)" style=""><foreignObject width="61.21665954589844" height="24"><div style="display: table-cell; white-space: nowrap; line-height: 1.5; max-width: 170px; text-align: start;" xmlns="http://www.w3.org/1999/xhtml"><span class="nodeLabel"><p>INTEGER</p></span></div></foreignObject></g><g class="label attribute-name" transform="translate(0.1750030517578125, -12)" style=""><foreignObject width="67.80000305175781" height="24"><div style="display: table-cell; white-space: nowrap; line-height: 1.5; max-width: 177px; text-align: start;" xmlns="http://www.w3.org/1999/xhtml"><span class="nodeLabel"><p>access_id</p></span></div></foreignObject></g><g class="label attribute-keys" transform="translate(103.57499694824219, -12)" style=""><foreignObject width="17.616668701171875" height="24"><div style="display: table-cell; white-space: nowrap; line-height: 1.5; max-width: 122px; text-align: start;" xmlns="http://www.w3.org/1999/xhtml"><span class="nodeLabel"><p>FK</p></span></div></foreignObject></g><g class="label attribute-comment" transform="translate(146.7083282470703, -12)" style=""><foreignObject width="0" height="0"><div style="display: table-cell; white-space: nowrap; line-height: 1.5; max-width: 100px; text-align: start;" xmlns="http://www.w3.org/1999/xhtml"><span class="nodeLabel"></span></div></foreignObject></g><g class="label attribute-type" transform="translate(-121.70832824707031, 30.75)" style=""><foreignObject width="61.21665954589844" height="24"><div style="display: table-cell; white-space: nowrap; line-height: 1.5; max-width: 170px; text-align: start;" xmlns="http://www.w3.org/1999/xhtml"><span class="nodeLabel"><p>INTEGER</p></span></div></foreignObject></g><g class="label attribute-name" transform="translate(0.1750030517578125, 30.75)" style=""><foreignObject width="50.116668701171875" height="24"><div style="display: table-cell; white-space: nowrap; line-height: 1.5; max-width: 152px; text-align: start;" xmlns="http://www.w3.org/1999/xhtml"><span class="nodeLabel"><p>role_id</p></span></div></foreignObject></g><g class="label attribute-keys" transform="translate(103.57499694824219, 30.75)" style=""><foreignObject width="17.616668701171875" height="24"><div style="display: table-cell; white-space: nowrap; line-height: 1.5; max-width: 122px; text-align: start;" xmlns="http://www.w3.org/1999/xhtml"><span class="nodeLabel"><p>FK</p></span></div></foreignObject></g><g class="label attribute-comment" transform="translate(146.7083282470703, 30.75)" style=""><foreignObject width="0" height="0"><div style="display: table-cell; white-space: nowrap; line-height: 1.5; max-width: 100px; text-align: start;" xmlns="http://www.w3.org/1999/xhtml"><span class="nodeLabel"></span></div></foreignObject></g><g class="label attribute-type" transform="translate(-121.70832824707031, 73.5)" style=""><foreignObject width="96.88333129882812" height="24"><div style="display: table-cell; white-space: nowrap; line-height: 1.5; max-width: 216px; text-align: start;" xmlns="http://www.w3.org/1999/xhtml"><span class="nodeLabel"><p>TIMESTAMPTZ</p></span></div></foreignObject></g><g class="label attribute-name" transform="translate(0.1750030517578125, 73.5)" style=""><foreignObject width="78.39999389648438" height="24"><div style="display: table-cell; white-space: nowrap; line-height: 1.5; max-width: 181px; text-align: start;" xmlns="http://www.w3.org/1999/xhtml"><span class="nodeLabel"><p>created_at</p></span></div></foreignObject></g><g class="label attribute-keys" transform="translate(103.57499694824219, 73.5)" style=""><foreignObject width="0" height="0"><div style="display: table-cell; white-space: nowrap; line-height: 1.5; max-width: 100px; text-align: start;" xmlns="http://www.w3.org/1999/xhtml"><span class="nodeLabel"></span></div></foreignObject></g><g class="label attribute-comment" transform="translate(146.7083282470703, 73.5)" style=""><foreignObject width="0" height="0"><div style="display: table-cell; white-space: nowrap; line-height: 1.5; max-width: 100px; text-align: start;" xmlns="http://www.w3.org/1999/xhtml"><span class="nodeLabel"></span></div></foreignObject></g><g class="divider"><path d="M-134.2083282470703 -64.125 C-31.675232968122103 -64.125, 70.8578623108261 -64.125, 134.2083282470703 -64.125 M-134.2083282470703 -64.125 C-39.69590304832532 -64.125, 54.81652215041967 -64.125, 134.2083282470703 -64.125" stroke="#9370DB" stroke-width="1.3" fill="none" stroke-dasharray="0 0"/></g><g class="divider"><path d="M-12.324996948242188 -64.125 C-12.324996948242188 -16.87679488659989, -12.324996948242188 30.371410226800222, -12.324996948242188 106.875 M-12.324996948242188 -64.125 C-12.324996948242188 -11.725643628476469, -12.324996948242188 40.67371274304706, -12.324996948242188 106.875" stroke="#9370DB" stroke-width="1.3" fill="none" stroke-dasharray="0 0"/></g><g class="divider"><path d="M91.07499694824219 -64.125 C91.07499694824219 2.745908125040799, 91.07499694824219 69.6168162500816, 91.07499694824219 106.875 M91.07499694824219 -64.125 C91.07499694824219 -25.0986368282825, 91.07499694824219 13.927726343434998, 91.07499694824219 106.875" stroke="#9370DB" stroke-width="1.3" fill="none" stroke-dasharray="0 0"/></g><g class="divider"><path d="M-134.2083282470703 -64.125 C-41.28354776162743 -64.125, 51.64123272381545 -64.125, 134.2083282470703 -64.125 M-134.2083282470703 -64.125 C-57.71172521459373 -64.125, 18.784877817882858 -64.125, 134.2083282470703 -64.125" stroke="#9370DB" stroke-width="1.3" fill="none" stroke-dasharray="0 0"/></g></g><g class="node default" id="entity-roles-2" transform="translate(259.00415649451315, 157.625)"><g style=""><path d="M-134.94166564941406 -85.5 L134.94166564941406 -85.5 L134.94166564941406 85.5 L-134.94166564941406 85.5" stroke="none" stroke-width="0" fill="#ECECFF"/><path d="M-134.94166564941406 -85.5 C-73.83353649309967 -85.5, -12.725407336785281 -85.5, 134.94166564941406 -85.5 M-134.94166564941406 -85.5 C-57.90958555172692 -85.5, 19.122494545960222 -85.5, 134.94166564941406 -85.5 M134.94166564941406 -85.5 C134.94166564941406 -17.268221437912544, 134.94166564941406 50.96355712417491, 134.94166564941406 85.5 M134.94166564941406 -85.5 C134.94166564941406 -27.109478974896334, 134.94166564941406 31.281042050207333, 134.94166564941406 85.5 M134.94166564941406 85.5 C43.16106556489122 85.5, -48.61953451963163 85.5, -134.94166564941406 85.5 M134.94166564941406 85.5 C75.38104944184619 85.5, 15.820433234278312 85.5, -134.94166564941406 85.5 M-134.94166564941406 85.5 C-134.94166564941406 38.194556296127125, -134.94166564941406 -9.11088740774575, -134.94166564941406 -85.5 M-134.94166564941406 85.5 C-134.94166564941406 47.48284822516404, -134.94166564941406 9.465696450328082, -134.94166564941406 -85.5" stroke="#9370DB" stroke-width="1.3" fill="none" stroke-dasharray="0 0"/></g><g style="" class="row-rect-odd"><path d="M-134.94166564941406 -42.75 L134.94166564941406 -42.75 L134.94166564941406 0 L-134.94166564941406 0" stroke="none" stroke-width="0" fill="hsl(240, 100%, 100%)"/><path d="M-134.94166564941406 -42.75 C-80.94314032389377 -42.75, -26.944614998373467 -42.75, 134.94166564941406 -42.75 M-134.94166564941406 -42.75 C-64.39999549227883 -42.75, 6.141674664856396 -42.75, 134.94166564941406 -42.75 M134.94166564941406 -42.75 C134.94166564941406 -29.031562237399527, 134.94166564941406 -15.31312447479905, 134.94166564941406 0 M134.94166564941406 -42.75 C134.94166564941406 -32.069713513028745, 134.94166564941406 -21.38942702605749, 134.94166564941406 0 M134.94166564941406 0 C40.810204250545 0, -53.321257148324065 0, -134.94166564941406 0 M134.94166564941406 0 C68.17164730738676 0, 1.401628965359464 0, -134.94166564941406 0 M-134.94166564941406 0 C-134.94166564941406 -11.22628551911924, -134.94166564941406 -22.45257103823848, -134.94166564941406 -42.75 M-134.94166564941406 0 C-134.94166564941406 -12.559739355371502, -134.94166564941406 -25.119478710743003, -134.94166564941406 -42.75" stroke="#9370DB" stroke-width="1.3" fill="none" stroke-dasharray="0 0"/></g><g style="" class="row-rect-even"><path d="M-134.94166564941406 0 L134.94166564941406 0 L134.94166564941406 42.75 L-134.94166564941406 42.75" stroke="none" stroke-width="0" fill="hsl(240, 100%, 97.2745098039%)"/><path d="M-134.94166564941406 0 C-73.11102332177788 0, -11.28038099414168 0, 134.94166564941406 0 M-134.94166564941406 0 C-32.23092802108562 0, 70.47980960724283 0, 134.94166564941406 0 M134.94166564941406 0 C134.94166564941406 10.382980753292724, 134.94166564941406 20.765961506585448, 134.94166564941406 42.75 M134.94166564941406 0 C134.94166564941406 15.343364478779549, 134.94166564941406 30.686728957559097, 134.94166564941406 42.75 M134.94166564941406 42.75 C36.5450756905978 42.75, -61.851514268218466 42.75, -134.94166564941406 42.75 M134.94166564941406 42.75 C64.22271860760334 42.75, -6.4962284342073815 42.75, -134.94166564941406 42.75 M-134.94166564941406 42.75 C-134.94166564941406 31.414479173897092, -134.94166564941406 20.07895834779418, -134.94166564941406 0 M-134.94166564941406 42.75 C-134.94166564941406 30.75215884928658, -134.94166564941406 18.754317698573157, -134.94166564941406 0" stroke="#9370DB" stroke-width="1.3" fill="none" stroke-dasharray="0 0"/></g><g style="" class="row-rect-odd"><path d="M-134.94166564941406 42.75 L134.94166564941406 42.75 L134.94166564941406 85.5 L-134.94166564941406 85.5" stroke="none" stroke-width="0" fill="hsl(240, 100%, 100%)"/><path d="M-134.94166564941406 42.75 C-50.56154806548872 42.75, 33.81856951843662 42.75, 134.94166564941406 42.75 M-134.94166564941406 42.75 C-50.312138327788276 42.75, 34.31738899383751 42.75, 134.94166564941406 42.75 M134.94166564941406 42.75 C134.94166564941406 53.035090626625475, 134.94166564941406 63.32018125325095, 134.94166564941406 85.5 M134.94166564941406 42.75 C134.94166564941406 54.222991160848004, 134.94166564941406 65.69598232169601, 134.94166564941406 85.5 M134.94166564941406 85.5 C28.338030996226053 85.5, -78.26560365696196 85.5, -134.94166564941406 85.5 M134.94166564941406 85.5 C43.613559868929485 85.5, -47.71454591155509 85.5, -134.94166564941406 85.5 M-134.94166564941406 85.5 C-134.94166564941406 73.42603128598034, -134.94166564941406 61.35206257196069, -134.94166564941406 42.75 M-134.94166564941406 85.5 C-134.94166564941406 76.56916777677074, -134.94166564941406 67.63833555354148, -134.94166564941406 42.75" stroke="#9370DB" stroke-width="1.3" fill="none" stroke-dasharray="0 0"/></g><g class="label name" transform="translate(-17.366668701171875, -76.125)" style=""><foreignObject width="34.73333740234375" height="24"><div style="display: table-cell; white-space: nowrap; line-height: 1.5; max-width: 139px; text-align: start;" xmlns="http://www.w3.org/1999/xhtml"><span class="nodeLabel"><p>roles</p></span></div></foreignObject></g><g class="label attribute-type" transform="translate(-122.44166564941406, -33.375)" style=""><foreignObject width="47.56666564941406" height="24"><div style="display: table-cell; white-space: nowrap; line-height: 1.5; max-width: 157px; text-align: start;" xmlns="http://www.w3.org/1999/xhtml"><span class="nodeLabel"><p>SERIAL</p></span></div></foreignObject></g><g class="label attribute-name" transform="translate(-0.5583343505859375, -33.375)" style=""><foreignObject width="13.48333740234375" height="24"><div style="display: table-cell; white-space: nowrap; line-height: 1.5; max-width: 116px; text-align: start;" xmlns="http://www.w3.org/1999/xhtml"><span class="nodeLabel"><p>id</p></span></div></foreignObject></g><g class="label attribute-keys" transform="translate(102.84165954589844, -33.375)" style=""><foreignObject width="18.133331298828125" height="24"><div style="display: table-cell; white-space: nowrap; line-height: 1.5; max-width: 123px; text-align: start;" xmlns="http://www.w3.org/1999/xhtml"><span class="nodeLabel"><p>PK</p></span></div></foreignObject></g><g class="label attribute-comment" transform="translate(147.44166564941406, -33.375)" style=""><foreignObject width="0" height="0"><div style="display: table-cell; white-space: nowrap; line-height: 1.5; max-width: 100px; text-align: start;" xmlns="http://www.w3.org/1999/xhtml"><span class="nodeLabel"></span></div></foreignObject></g><g class="label attribute-type" transform="translate(-122.44166564941406, 9.375)" style=""><foreignObject width="65.30000305175781" height="24"><div style="display: table-cell; white-space: nowrap; line-height: 1.5; max-width: 178px; text-align: start;" xmlns="http://www.w3.org/1999/xhtml"><span class="nodeLabel"><p>VARCHAR</p></span></div></foreignObject></g><g class="label attribute-name" transform="translate(-0.5583343505859375, 9.375)" style=""><foreignObject width="39.16667175292969" height="24"><div style="display: table-cell; white-space: nowrap; line-height: 1.5; max-width: 144px; text-align: start;" xmlns="http://www.w3.org/1999/xhtml"><span class="nodeLabel"><p>name</p></span></div></foreignObject></g><g class="label attribute-keys" transform="translate(102.84165954589844, 9.375)" style=""><foreignObject width="19.600006103515625" height="24"><div style="display: table-cell; white-space: nowrap; line-height: 1.5; max-width: 125px; text-align: start;" xmlns="http://www.w3.org/1999/xhtml"><span class="nodeLabel"><p>UK</p></span></div></foreignObject></g><g class="label attribute-comment" transform="translate(147.44166564941406, 9.375)" style=""><foreignObject width="0" height="0"><div style="display: table-cell; white-space: nowrap; line-height: 1.5; max-width: 100px; text-align: start;" xmlns="http://www.w3.org/1999/xhtml"><span class="nodeLabel"></span></div></foreignObject></g><g class="label attribute-type" transform="translate(-122.44166564941406, 52.125)" style=""><foreignObject width="96.88333129882812" height="24"><div style="display: table-cell; white-space: nowrap; line-height: 1.5; max-width: 216px; text-align: start;" xmlns="http://www.w3.org/1999/xhtml"><span class="nodeLabel"><p>TIMESTAMPTZ</p></span></div></foreignObject></g><g class="label attribute-name" transform="translate(-0.5583343505859375, 52.125)" style=""><foreignObject width="78.39999389648438" height="24"><div style="display: table-cell; white-space: nowrap; line-height: 1.5; max-width: 181px; text-align: start;" xmlns="http://www.w3.org/1999/xhtml"><span class="nodeLabel"><p>created_at</p></span></div></foreignObject></g><g class="label attribute-keys" transform="translate(102.84165954589844, 52.125)" style=""><foreignObject width="0" height="0"><div style="display: table-cell; white-space: nowrap; line-height: 1.5; max-width: 100px; text-align: start;" xmlns="http://www.w3.org/1999/xhtml"><span class="nodeLabel"></span></div></foreignObject></g><g class="label attribute-comment" transform="translate(147.44166564941406, 52.125)" style=""><foreignObject width="0" height="0"><div style="display: table-cell; white-space: nowrap; line-height: 1.5; max-width: 100px; text-align: start;" xmlns="http://www.w3.org/1999/xhtml"><span class="nodeLabel"></span></div></foreignObject></g><g class="divider"><path d="M-134.94166564941406 -42.75 C-63.379000626158785 -42.75, 8.183664397096493 -42.75, 134.94166564941406 -42.75 M-134.94166564941406 -42.75 C-28.57111028124922 -42.75, 77.79944508691563 -42.75, 134.94166564941406 -42.75" stroke="#9370DB" stroke-width="1.3" fill="none" stroke-dasharray="0 0"/></g><g class="divider"><path d="M-13.058334350585938 -42.75 C-13.058334350585938 7.111230076214142, -13.058334350585938 56.97246015242828, -13.058334350585938 85.5 M-13.058334350585938 -42.75 C-13.058334350585938 -8.496307255732624, -13.058334350585938 25.75738548853475, -13.058334350585938 85.5" stroke="#9370DB" stroke-width="1.3" fill="none" stroke-dasharray="0 0"/></g><g class="divider"><path d="M90.34165954589844 -42.75 C90.34165954589844 8.061190282650898, 90.34165954589844 58.872380565301796, 90.34165954589844 85.5 M90.34165954589844 -42.75 C90.34165954589844 6.982566183952251, 90.34165954589844 56.7151323679045, 90.34165954589844 85.5" stroke="#9370DB" stroke-width="1.3" fill="none" stroke-dasharray="0 0"/></g><g class="divider"><path d="M-134.94166564941406 -42.75 C-46.60187622653095 -42.75, 41.73791319635217 -42.75, 134.94166564941406 -42.75 M-134.94166564941406 -42.75 C-71.93061128952034 -42.75, -8.919556929626623 -42.75, 134.94166564941406 -42.75" stroke="#9370DB" stroke-width="1.3" fill="none" stroke-dasharray="0 0"/></g></g><g class="node default" id="entity-roles_users-3" transform="translate(550.6249847412109, 515.125)"><g style=""><path d="M-134.2083282470703 -106.875 L134.2083282470703 -106.875 L134.2083282470703 106.875 L-134.2083282470703 106.875" stroke="none" stroke-width="0" fill="#ECECFF"/><path d="M-134.2083282470703 -106.875 C-35.04856598720224 -106.875, 64.11119627266584 -106.875, 134.2083282470703 -106.875 M-134.2083282470703 -106.875 C-42.15706434048309 -106.875, 49.894199566104135 -106.875, 134.2083282470703 -106.875 M134.2083282470703 -106.875 C134.2083282470703 -42.01256817434205, 134.2083282470703 22.8498636513159, 134.2083282470703 106.875 M134.2083282470703 -106.875 C134.2083282470703 -59.98484662591849, 134.2083282470703 -13.094693251836986, 134.2083282470703 106.875 M134.2083282470703 106.875 C54.59569877195955 106.875, -25.016930703151218 106.875, -134.2083282470703 106.875 M134.2083282470703 106.875 C53.320336523288915 106.875, -27.56765520049248 106.875, -134.2083282470703 106.875 M-134.2083282470703 106.875 C-134.2083282470703 22.41593910803435, -134.2083282470703 -62.0431217839313, -134.2083282470703 -106.875 M-134.2083282470703 106.875 C-134.2083282470703 52.0875986098365, -134.2083282470703 -2.699802780327005, -134.2083282470703 -106.875" stroke="#9370DB" stroke-width="1.3" fill="none" stroke-dasharray="0 0"/></g><g style="" class="row-rect-odd"><path d="M-134.2083282470703 -64.125 L134.2083282470703 -64.125 L134.2083282470703 -21.375 L-134.2083282470703 -21.375" stroke="none" stroke-width="0" fill="hsl(240, 100%, 100%)"/><path d="M-134.2083282470703 -64.125 C-36.96845366955456 -64.125, 60.271420907961186 -64.125, 134.2083282470703 -64.125 M-134.2083282470703 -64.125 C-76.55043626194303 -64.125, -18.892544276815755 -64.125, 134.2083282470703 -64.125 M134.2083282470703 -64.125 C134.2083282470703 -52.615677925111804, 134.2083282470703 -41.10635585022361, 134.2083282470703 -21.375 M134.2083282470703 -64.125 C134.2083282470703 -52.12502634784968, 134.2083282470703 -40.125052695699374, 134.2083282470703 -21.375 M134.2083282470703 -21.375 C38.007143592022004 -21.375, -58.194041063026305 -21.375, -134.2083282470703 -21.375 M134.2083282470703 -21.375 C56.38071099612716 -21.375, -21.446906254815985 -21.375, -134.2083282470703 -21.375 M-134.2083282470703 -21.375 C-134.2083282470703 -31.97756056978471, -134.2083282470703 -42.58012113956942, -134.2083282470703 -64.125 M-134.2083282470703 -21.375 C-134.2083282470703 -32.20031616207788, -134.2083282470703 -43.025632324155765, -134.2083282470703 -64.125" stroke="#9370DB" stroke-width="1.3" fill="none" stroke-dasharray="0 0"/></g><g style="" class="row-rect-even"><path d="M-134.2083282470703 -21.375 L134.2083282470703 -21.375 L134.2083282470703 21.375 L-134.2083282470703 21.375" stroke="none" stroke-width="0" fill="hsl(240, 100%, 97.2745098039%)"/><path d="M-134.2083282470703 -21.375 C-45.363199841575764 -21.375, 43.481928563918785 -21.375, 134.2083282470703 -21.375 M-134.2083282470703 -21.375 C-63.13409859507777 -21.375, 7.940131056914765 -21.375, 134.2083282470703 -21.375 M134.2083282470703 -21.375 C134.2083282470703 -9.944805227869235, 134.2083282470703 1.4853895442615297, 134.2083282470703 21.375 M134.2083282470703 -21.375 C134.2083282470703 -6.550283478143937, 134.2083282470703 8.274433043712126, 134.2083282470703 21.375 M134.2083282470703 21.375 C46.93459716420354 21.375, -40.33913391866324 21.375, -134.2083282470703 21.375 M134.2083282470703 21.375 C61.92068474197562 21.375, -10.366958763119072 21.375, -134.2083282470703 21.375 M-134.2083282470703 21.375 C-134.2083282470703 7.859236117957508, -134.2083282470703 -5.656527764084984, -134.2083282470703 -21.375 M-134.2083282470703 21.375 C-134.2083282470703 9.465679814256147, -134.2083282470703 -2.4436403714877066, -134.2083282470703 -21.375" stroke="#9370DB" stroke-width="1.3" fill="none" stroke-dasharray="0 0"/></g><g style="" class="row-rect-odd"><path d="M-134.2083282470703 21.375 L134.2083282470703 21.375 L134.2083282470703 64.125 L-134.2083282470703 64.125" stroke="none" stroke-width="0" fill="hsl(240, 100%, 100%)"/><path d="M-134.2083282470703 21.375 C-31.8488770585424 21.375, 70.51057412998551 21.375, 134.2083282470703 21.375 M-134.2083282470703 21.375 C-73.20857128360554 21.375, -12.20881432014076 21.375, 134.2083282470703 21.375 M134.2083282470703 21.375 C134.2083282470703 35.076780334219734, 134.2083282470703 48.77856066843947, 134.2083282470703 64.125 M134.2083282470703 21.375 C134.2083282470703 34.95539404308357, 134.2083282470703 48.53578808616714, 134.2083282470703 64.125 M134.2083282470703 64.125 C47.4918895994295 64.125, -39.224549048211315 64.125, -134.2083282470703 64.125 M134.2083282470703 64.125 C46.547072456260096 64.125, -41.11418333455012 64.125, -134.2083282470703 64.125 M-134.2083282470703 64.125 C-134.2083282470703 52.02123253285604, -134.2083282470703 39.91746506571208, -134.2083282470703 21.375 M-134.2083282470703 64.125 C-134.2083282470703 53.24161806309631, -134.2083282470703 42.35823612619262, -134.2083282470703 21.375" stroke="#9370DB" stroke-width="1.3" fill="none" stroke-dasharray="0 0"/></g><g style="" class="row-rect-even"><path d="M-134.2083282470703 64.125 L134.2083282470703 64.125 L134.2083282470703 106.875 L-134.2083282470703 106.875" stroke="none" stroke-width="0" fill="hsl(240, 100%, 97.2745098039%)"/><path d="M-134.2083282470703 64.125 C-37.54806930276479 64.125, 59.11218964154074 64.125, 134.2083282470703 64.125 M-134.2083282470703 64.125 C-45.845903143740045 64.125, 42.51652195959022 64.125, 134.2083282470703 64.125 M134.2083282470703 64.125 C134.2083282470703 73.310071271019, 134.2083282470703 82.495142542038, 134.2083282470703 106.875 M134.2083282470703 64.125 C134.2083282470703 75.38457776445759, 134.2083282470703 86.64415552891516, 134.2083282470703 106.875 M134.2083282470703 106.875 C39.75795696050059 106.875, -54.69241432606913 106.875, -134.2083282470703 106.875 M134.2083282470703 106.875 C35.81695116185962 106.875, -62.57442592335107 106.875, -134.2083282470703 106.875 M-134.2083282470703 106.875 C-134.2083282470703 94.14247000392305, -134.2083282470703 81.40994000784612, -134.2083282470703 64.125 M-134.2083282470703 106.875 C-134.2083282470703 90.68371665784142, -134.2083282470703 74.49243331568283, -134.2083282470703 64.125" stroke="#9370DB" stroke-width="1.3" fill="none" stroke-dasharray="0 0"/></g><g class="label name" transform="translate(-39.89167022705078, -97.5)" style=""><foreignObject width="79.78334045410156" height="24"><div style="display: table-cell; white-space: nowrap; line-height: 1.5; max-width: 188px; text-align: start;" xmlns="http://www.w3.org/1999/xhtml"><span class="nodeLabel"><p>roles_users</p></span></div></foreignObject></g><g class="label attribute-type" transform="translate(-121.70832824707031, -54.75)" style=""><foreignObject width="71.88333129882812" height="24"><div style="display: table-cell; white-space: nowrap; line-height: 1.5; max-width: 183px; text-align: start;" xmlns="http://www.w3.org/1999/xhtml"><span class="nodeLabel"><p>BIGSERIAL</p></span></div></foreignObject></g><g class="label attribute-name" transform="translate(0.1750030517578125, -54.75)" style=""><foreignObject width="13.48333740234375" height="24"><div style="display: table-cell; white-space: nowrap; line-height: 1.5; max-width: 116px; text-align: start;" xmlns="http://www.w3.org/1999/xhtml"><span class="nodeLabel"><p>id</p></span></div></foreignObject></g><g class="label attribute-keys" transform="translate(103.57499694824219, -54.75)" style=""><foreignObject width="18.133331298828125" height="24"><div style="display: table-cell; white-space: nowrap; line-height: 1.5; max-width: 123px; text-align: start;" xmlns="http://www.w3.org/1999/xhtml"><span class="nodeLabel"><p>PK</p></span></div></foreignObject></g><g class="label attribute-comment" transform="translate(146.7083282470703, -54.75)" style=""><foreignObject width="0" height="0"><div style="display: table-cell; white-space: nowrap; line-height: 1.5; max-width: 100px; text-align: start;" xmlns="http://www.w3.org/1999/xhtml"><span class="nodeLabel"></span></div></foreignObject></g><g class="label attribute-type" transform="translate(-121.70832824707031, -12)" style=""><foreignObject width="61.21665954589844" height="24"><div style="display: table-cell; white-space: nowrap; line-height: 1.5; max-width: 170px; text-align: start;" xmlns="http://www.w3.org/1999/xhtml"><span class="nodeLabel"><p>INTEGER</p></span></div></foreignObject></g><g class="label attribute-name" transform="translate(0.1750030517578125, -12)" style=""><foreignObject width="50.116668701171875" height="24"><div style="display: table-cell; white-space: nowrap; line-height: 1.5; max-width: 152px; text-align: start;" xmlns="http://www.w3.org/1999/xhtml"><span class="nodeLabel"><p>role_id</p></span></div></foreignObject></g><g class="label attribute-keys" transform="translate(103.57499694824219, -12)" style=""><foreignObject width="17.616668701171875" height="24"><div style="display: table-cell; white-space: nowrap; line-height: 1.5; max-width: 122px; text-align: start;" xmlns="http://www.w3.org/1999/xhtml"><span class="nodeLabel"><p>FK</p></span></div></foreignObject></g><g class="label attribute-comment" transform="translate(146.7083282470703, -12)" style=""><foreignObject width="0" height="0"><div style="display: table-cell; white-space: nowrap; line-height: 1.5; max-width: 100px; text-align: start;" xmlns="http://www.w3.org/1999/xhtml"><span class="nodeLabel"></span></div></foreignObject></g><g class="label attribute-type" transform="translate(-121.70832824707031, 30.75)" style=""><foreignObject width="35.03334045410156" height="24"><div style="display: table-cell; white-space: nowrap; line-height: 1.5; max-width: 142px; text-align: start;" xmlns="http://www.w3.org/1999/xhtml"><span class="nodeLabel"><p>UUID</p></span></div></foreignObject></g><g class="label attribute-name" transform="translate(0.1750030517578125, 30.75)" style=""><foreignObject width="52.05000305175781" height="24"><div style="display: table-cell; white-space: nowrap; line-height: 1.5; max-width: 157px; text-align: start;" xmlns="http://www.w3.org/1999/xhtml"><span class="nodeLabel"><p>user_id</p></span></div></foreignObject></g><g class="label attribute-keys" transform="translate(103.57499694824219, 30.75)" style=""><foreignObject width="17.616668701171875" height="24"><div style="display: table-cell; white-space: nowrap; line-height: 1.5; max-width: 122px; text-align: start;" xmlns="http://www.w3.org/1999/xhtml"><span class="nodeLabel"><p>FK</p></span></div></foreignObject></g><g class="label attribute-comment" transform="translate(146.7083282470703, 30.75)" style=""><foreignObject width="0" height="0"><div style="display: table-cell; white-space: nowrap; line-height: 1.5; max-width: 100px; text-align: start;" xmlns="http://www.w3.org/1999/xhtml"><span class="nodeLabel"></span></div></foreignObject></g><g class="label attribute-type" transform="translate(-121.70832824707031, 73.5)" style=""><foreignObject width="96.88333129882812" height="24"><div style="display: table-cell; white-space: nowrap; line-height: 1.5; max-width: 216px; text-align: start;" xmlns="http://www.w3.org/1999/xhtml"><span class="nodeLabel"><p>TIMESTAMPTZ</p></span></div></foreignObject></g><g class="label attribute-name" transform="translate(0.1750030517578125, 73.5)" style=""><foreignObject width="78.39999389648438" height="24"><div style="display: table-cell; white-space: nowrap; line-height: 1.5; max-width: 181px; text-align: start;" xmlns="http://www.w3.org/1999/xhtml"><span class="nodeLabel"><p>created_at</p></span></div></foreignObject></g><g class="label attribute-keys" transform="translate(103.57499694824219, 73.5)" style=""><foreignObject width="0" height="0"><div style="display: table-cell; white-space: nowrap; line-height: 1.5; max-width: 100px; text-align: start;" xmlns="http://www.w3.org/1999/xhtml"><span class="nodeLabel"></span></div></foreignObject></g><g class="label attribute-comment" transform="translate(146.7083282470703, 73.5)" style=""><foreignObject width="0" height="0"><div style="display: table-cell; white-space: nowrap; line-height: 1.5; max-width: 100px; text-align: start;" xmlns="http://www.w3.org/1999/xhtml"><span class="nodeLabel"></span></div></foreignObject></g><g class="divider"><path d="M-134.2083282470703 -64.125 C-52.65132623628995 -64.125, 28.90567577449042 -64.125, 134.2083282470703 -64.125 M-134.2083282470703 -64.125 C-79.3001672585514 -64.125, -24.392006270032482 -64.125, 134.2083282470703 -64.125" stroke="#9370DB" stroke-width="1.3" fill="none" stroke-dasharray="0 0"/></g><g class="divider"><path d="M-12.324996948242188 -64.125 C-12.324996948242188 -15.570882245382975, -12.324996948242188 32.98323550923405, -12.324996948242188 106.875 M-12.324996948242188 -64.125 C-12.324996948242188 -18.087033201594295, -12.324996948242188 27.95093359681141, -12.324996948242188 106.875" stroke="#9370DB" stroke-width="1.3" fill="none" stroke-dasharray="0 0"/></g><g class="divider"><path d="M91.07499694824219 -64.125 C91.07499694824219 -6.337887253953177, 91.07499694824219 51.449225492093646, 91.07499694824219 106.875 M91.07499694824219 -64.125 C91.07499694824219 -25.413477566729547, 91.07499694824219 13.298044866540906, 91.07499694824219 106.875" stroke="#9370DB" stroke-width="1.3" fill="none" stroke-dasharray="0 0"/></g><g class="divider"><path d="M-134.2083282470703 -64.125 C-70.39388942423741 -64.125, -6.579450601404503 -64.125, 134.2083282470703 -64.125 M-134.2083282470703 -64.125 C-60.040822768751326 -64.125, 14.12668270956766 -64.125, 134.2083282470703 -64.125" stroke="#9370DB" stroke-width="1.3" fill="none" stroke-dasharray="0 0"/></g></g><g class="node default" id="entity-users-4" transform="translate(1097.7374862674624, 157.625)"><g style=""><path d="M-114.70833587646484 -149.625 L114.70833587646484 -149.625 L114.70833587646484 149.625 L-114.70833587646484 149.625" stroke="none" stroke-width="0" fill="#ECECFF"/><path d="M-114.70833587646484 -149.625 C-56.637104517581925 -149.625, 1.4341268413009942 -149.625, 114.70833587646484 -149.625 M-114.70833587646484 -149.625 C-42.39560169792779 -149.625, 29.91713248060927 -149.625, 114.70833587646484 -149.625 M114.70833587646484 -149.625 C114.70833587646484 -41.04981519181152, 114.70833587646484 67.52536961637696, 114.70833587646484 149.625 M114.70833587646484 -149.625 C114.70833587646484 -78.34231899007901, 114.70833587646484 -7.059637980158016, 114.70833587646484 149.625 M114.70833587646484 149.625 C33.76380371746512 149.625, -47.1807284415346 149.625, -114.70833587646484 149.625 M114.70833587646484 149.625 C58.31244046160926 149.625, 1.9165450467536829 149.625, -114.70833587646484 149.625 M-114.70833587646484 149.625 C-114.70833587646484 89.30158848759793, -114.70833587646484 28.97817697519585, -114.70833587646484 -149.625 M-114.70833587646484 149.625 C-114.70833587646484 85.49993084642189, -114.70833587646484 21.37486169284378, -114.70833587646484 -149.625" stroke="#9370DB" stroke-width="1.3" fill="none" stroke-dasharray="0 0"/></g><g style="" class="row-rect-odd"><path d="M-114.70833587646484 -106.875 L114.70833587646484 -106.875 L114.70833587646484 -64.125 L-114.70833587646484 -64.125" stroke="none" stroke-width="0" fill="hsl(240, 100%, 100%)"/><path d="M-114.70833587646484 -106.875 C-25.22890726623288 -106.875, 64.25052134399908 -106.875, 114.70833587646484 -106.875 M-114.70833587646484 -106.875 C-43.16845607593345 -106.875, 28.371423724597946 -106.875, 114.70833587646484 -106.875 M114.70833587646484 -106.875 C114.70833587646484 -89.91907081050539, 114.70833587646484 -72.96314162101079, 114.70833587646484 -64.125 M114.70833587646484 -106.875 C114.70833587646484 -91.06162758368097, 114.70833587646484 -75.24825516736195, 114.70833587646484 -64.125 M114.70833587646484 -64.125 C30.470264420119236 -64.125, -53.76780703622637 -64.125, -114.70833587646484 -64.125 M114.70833587646484 -64.125 C40.959581784085245 -64.125, -32.789172308294354 -64.125, -114.70833587646484 -64.125 M-114.70833587646484 -64.125 C-114.70833587646484 -77.1646060011179, -114.70833587646484 -90.20421200223579, -114.70833587646484 -106.875 M-114.70833587646484 -64.125 C-114.70833587646484 -77.18333265846265, -114.70833587646484 -90.24166531692529, -114.70833587646484 -106.875" stroke="#9370DB" stroke-width="1.3" fill="none" stroke-dasharray="0 0"/></g><g style="" class="row-rect-even"><path d="M-114.70833587646484 -64.125 L114.70833587646484 -64.125 L114.70833587646484 -21.375 L-114.70833587646484 -21.375" stroke="none" stroke-width="0" fill="hsl(240, 100%, 97.2745098039%)"/><path d="M-114.70833587646484 -64.125 C-49.22680651642467 -64.125, 16.254722843615497 -64.125, 114.70833587646484 -64.125 M-114.70833587646484 -64.125 C-55.25503509192678 -64.125, 4.198265692611287 -64.125, 114.70833587646484 -64.125 M114.70833587646484 -64.125 C114.70833587646484 -48.364534896775, 114.70833587646484 -32.604069793549996, 114.70833587646484 -21.375 M114.70833587646484 -64.125 C114.70833587646484 -55.08419047850016, 114.70833587646484 -46.04338095700033, 114.70833587646484 -21.375 M114.70833587646484 -21.375 C34.36490254793074 -21.375, -45.978530780603364 -21.375, -114.70833587646484 -21.375 M114.70833587646484 -21.375 C57.662071316206266 -21.375, 0.6158067559476876 -21.375, -114.70833587646484 -21.375 M-114.70833587646484 -21.375 C-114.70833587646484 -35.78078541126735, -114.70833587646484 -50.186570822534705, -114.70833587646484 -64.125 M-114.70833587646484 -21.375 C-114.70833587646484 -32.39189195099945, -114.70833587646484 -43.4087839019989, -114.70833587646484 -64.125" stroke="#9370DB" stroke-width="1.3" fill="none" stroke-dasharray="0 0"/></g><g style="" class="row-rect-odd"><path d="M-114.70833587646484 -21.375 L114.70833587646484 -21.375 L114.70833587646484 21.375 L-114.70833587646484 21.375" stroke="none" stroke-width="0" fill="hsl(240, 100%, 100%)"/><path d="M-114.70833587646484 -21.375 C-27.643432543737674 -21.375, 59.421470788989495 -21.375, 114.70833587646484 -21.375 M-114.70833587646484 -21.375 C-67.41615397594961 -21.375, -20.12397207543438 -21.375, 114.70833587646484 -21.375 M114.70833587646484 -21.375 C114.70833587646484 -12.111738527452284, 114.70833587646484 -2.848477054904567, 114.70833587646484 21.375 M114.70833587646484 -21.375 C114.70833587646484 -7.392634420866175, 114.70833587646484 6.58973115826765, 114.70833587646484 21.375 M114.70833587646484 21.375 C66.88754972638189 21.375, 19.06676357629894 21.375, -114.70833587646484 21.375 M114.70833587646484 21.375 C53.20886662576133 21.375, -8.290602624942181 21.375, -114.70833587646484 21.375 M-114.70833587646484 21.375 C-114.70833587646484 5.268975618647506, -114.70833587646484 -10.837048762704988, -114.70833587646484 -21.375 M-114.70833587646484 21.375 C-114.70833587646484 8.217561234145643, -114.70833587646484 -4.939877531708714, -114.70833587646484 -21.375" stroke="#9370DB" stroke-width="1.3" fill="none" stroke-dasharray="0 0"/></g><g style="" class="row-rect-even"><path d="M-114.70833587646484 21.375 L114.70833587646484 21.375 L114.70833587646484 64.125 L-114.70833587646484 64.125" stroke="none" stroke-width="0" fill="hsl(240, 100%, 97.2745098039%)"/><path d="M-114.70833587646484 21.375 C-40.72549094016952 21.375, 33.2573539961258 21.375, 114.70833587646484 21.375 M-114.70833587646484 21.375 C-51.76770473907747 21.375, 11.172926398309897 21.375, 114.70833587646484 21.375 M114.70833587646484 21.375 C114.70833587646484 33.149621342277925, 114.70833587646484 44.92424268455586, 114.70833587646484 64.125 M114.70833587646484 21.375 C114.70833587646484 35.10056757271209, 114.70833587646484 48.826135145424175, 114.70833587646484 64.125 M114.70833587646484 64.125 C67.62503607063688 64.125, 20.541736264808918 64.125, -114.70833587646484 64.125 M114.70833587646484 64.125 C35.447100792064106 64.125, -43.81413429233663 64.125, -114.70833587646484 64.125 M-114.70833587646484 64.125 C-114.70833587646484 49.607865227382185, -114.70833587646484 35.09073045476437, -114.70833587646484 21.375 M-114.70833587646484 64.125 C-114.70833587646484 49.21865836732313, -114.70833587646484 34.31231673464626, -114.70833587646484 21.375" stroke="#9370DB" stroke-width="1.3" fill="none" stroke-dasharray="0 0"/></g><g style="" class="row-rect-odd"><path d="M-114.70833587646484 64.125 L114.70833587646484 64.125 L114.70833587646484 106.875 L-114.70833587646484 106.875" stroke="none" stroke-width="0" fill="hsl(240, 100%, 100%)"/><path d="M-114.70833587646484 64.125 C-31.487887818058653 64.125, 51.73256024034754 64.125, 114.70833587646484 64.125 M-114.70833587646484 64.125 C-51.141275293344954 64.125, 12.425785289774936 64.125, 114.70833587646484 64.125 M114.70833587646484 64.125 C114.70833587646484 81.18231118534048, 114.70833587646484 98.23962237068096, 114.70833587646484 106.875 M114.70833587646484 64.125 C114.70833587646484 79.03667582984093, 114.70833587646484 93.94835165968185, 114.70833587646484 106.875 M114.70833587646484 106.875 C36.56407215960772 106.875, -41.58019155724941 106.875, -114.70833587646484 106.875 M114.70833587646484 106.875 C61.22395926529209 106.875, 7.7395826541193316 106.875, -114.70833587646484 106.875 M-114.70833587646484 106.875 C-114.70833587646484 97.6243522212728, -114.70833587646484 88.3737044425456, -114.70833587646484 64.125 M-114.70833587646484 106.875 C-114.70833587646484 96.73345462776051, -114.70833587646484 86.59190925552102, -114.70833587646484 64.125" stroke="#9370DB" stroke-width="1.3" fill="none" stroke-dasharray="0 0"/></g><g style="" class="row-rect-even"><path d="M-114.70833587646484 106.875 L114.70833587646484 106.875 L114.70833587646484 149.625 L-114.70833587646484 149.625" stroke="none" stroke-width="0" fill="hsl(240, 100%, 97.2745098039%)"/><path d="M-114.70833587646484 106.875 C-26.752828986462248 106.875, 61.20267790354035 106.875, 114.70833587646484 106.875 M-114.70833587646484 106.875 C-47.10972040044237 106.875, 20.488895075580103 106.875, 114.70833587646484 106.875 M114.70833587646484 106.875 C114.70833587646484 122.06303315298408, 114.70833587646484 137.25106630596815, 114.70833587646484 149.625 M114.70833587646484 106.875 C114.70833587646484 117.57846079902076, 114.70833587646484 128.28192159804152, 114.70833587646484 149.625 M114.70833587646484 149.625 C28.36376755980355 149.625, -57.98080075685775 149.625, -114.70833587646484 149.625 M114.70833587646484 149.625 C34.20548112374064 149.625, -46.297373628983564 149.625, -114.70833587646484 149.625 M-114.70833587646484 149.625 C-114.70833587646484 140.79054995841335, -114.70833587646484 131.95609991682667, -114.70833587646484 106.875 M-114.70833587646484 149.625 C-114.70833587646484 138.37526168415178, -114.70833587646484 127.12552336830356, -114.70833587646484 106.875" stroke="#9370DB" stroke-width="1.3" fill="none" stroke-dasharray="0 0"/></g><g class="label name" transform="translate(-18.333335876464844, -140.25)" style=""><foreignObject width="36.66667175292969" height="24"><div style="display: table-cell; white-space: nowrap; line-height: 1.5; max-width: 144px; text-align: start;" xmlns="http://www.w3.org/1999/xhtml"><span class="nodeLabel"><p>users</p></span></div></foreignObject></g><g class="label attribute-type" transform="translate(-102.20833587646484, -97.5)" style=""><foreignObject width="35.03334045410156" height="24"><div style="display: table-cell; white-space: nowrap; line-height: 1.5; max-width: 142px; text-align: start;" xmlns="http://www.w3.org/1999/xhtml"><span class="nodeLabel"><p>UUID</p></span></div></foreignObject></g><g class="label attribute-name" transform="translate(-10.275001525878906, -97.5)" style=""><foreignObject width="13.48333740234375" height="24"><div style="display: table-cell; white-space: nowrap; line-height: 1.5; max-width: 116px; text-align: start;" xmlns="http://www.w3.org/1999/xhtml"><span class="nodeLabel"><p>id</p></span></div></foreignObject></g><g class="label attribute-keys" transform="translate(84.07500457763672, -97.5)" style=""><foreignObject width="18.133331298828125" height="24"><div style="display: table-cell; white-space: nowrap; line-height: 1.5; max-width: 123px; text-align: start;" xmlns="http://www.w3.org/1999/xhtml"><span class="nodeLabel"><p>PK</p></span></div></foreignObject></g><g class="label attribute-comment" transform="translate(127.20833587646484, -97.5)" style=""><foreignObject width="0" height="0"><div style="display: table-cell; white-space: nowrap; line-height: 1.5; max-width: 100px; text-align: start;" xmlns="http://www.w3.org/1999/xhtml"><span class="nodeLabel"></span></div></foreignObject></g><g class="label attribute-type" transform="translate(-102.20833587646484, -54.75)" style=""><foreignObject width="65.30000305175781" height="24"><div style="display: table-cell; white-space: nowrap; line-height: 1.5; max-width: 178px; text-align: start;" xmlns="http://www.w3.org/1999/xhtml"><span class="nodeLabel"><p>VARCHAR</p></span></div></foreignObject></g><g class="label attribute-name" transform="translate(-10.275001525878906, -54.75)" style=""><foreignObject width="39.16667175292969" height="24"><div style="display: table-cell; white-space: nowrap; line-height: 1.5; max-width: 144px; text-align: start;" xmlns="http://www.w3.org/1999/xhtml"><span class="nodeLabel"><p>name</p></span></div></foreignObject></g><g class="label attribute-keys" transform="translate(84.07500457763672, -54.75)" style=""><foreignObject width="0" height="0"><div style="display: table-cell; white-space: nowrap; line-height: 1.5; max-width: 100px; text-align: start;" xmlns="http://www.w3.org/1999/xhtml"><span class="nodeLabel"></span></div></foreignObject></g><g class="label attribute-comment" transform="translate(127.20833587646484, -54.75)" style=""><foreignObject width="0" height="0"><div style="display: table-cell; white-space: nowrap; line-height: 1.5; max-width: 100px; text-align: start;" xmlns="http://www.w3.org/1999/xhtml"><span class="nodeLabel"></span></div></foreignObject></g><g class="label attribute-type" transform="translate(-102.20833587646484, -12)" style=""><foreignObject width="65.30000305175781" height="24"><div style="display: table-cell; white-space: nowrap; line-height: 1.5; max-width: 178px; text-align: start;" xmlns="http://www.w3.org/1999/xhtml"><span class="nodeLabel"><p>VARCHAR</p></span></div></foreignObject></g><g class="label attribute-name" transform="translate(-10.275001525878906, -12)" style=""><foreignObject width="69.35000610351562" height="24"><div style="display: table-cell; white-space: nowrap; line-height: 1.5; max-width: 177px; text-align: start;" xmlns="http://www.w3.org/1999/xhtml"><span class="nodeLabel"><p>username</p></span></div></foreignObject></g><g class="label attribute-keys" transform="translate(84.07500457763672, -12)" style=""><foreignObject width="0" height="0"><div style="display: table-cell; white-space: nowrap; line-height: 1.5; max-width: 100px; text-align: start;" xmlns="http://www.w3.org/1999/xhtml"><span class="nodeLabel"></span></div></foreignObject></g><g class="label attribute-comment" transform="translate(127.20833587646484, -12)" style=""><foreignObject width="0" height="0"><div style="display: table-cell; white-space: nowrap; line-height: 1.5; max-width: 100px; text-align: start;" xmlns="http://www.w3.org/1999/xhtml"><span class="nodeLabel"></span></div></foreignObject></g><g class="label attribute-type" transform="translate(-102.20833587646484, 30.75)" style=""><foreignObject width="65.30000305175781" height="24"><div style="display: table-cell; white-space: nowrap; line-height: 1.5; max-width: 178px; text-align: start;" xmlns="http://www.w3.org/1999/xhtml"><span class="nodeLabel"><p>VARCHAR</p></span></div></foreignObject></g><g class="label attribute-name" transform="translate(-10.275001525878906, 30.75)" style=""><foreignObject width="65.89999389648438" height="24"><div style="display: table-cell; white-space: nowrap; line-height: 1.5; max-width: 176px; text-align: start;" xmlns="http://www.w3.org/1999/xhtml"><span class="nodeLabel"><p>password</p></span></div></foreignObject></g><g class="label attribute-keys" transform="translate(84.07500457763672, 30.75)" style=""><foreignObject width="0" height="0"><div style="display: table-cell; white-space: nowrap; line-height: 1.5; max-width: 100px; text-align: start;" xmlns="http://www.w3.org/1999/xhtml"><span class="nodeLabel"></span></div></foreignObject></g><g class="label attribute-comment" transform="translate(127.20833587646484, 30.75)" style=""><foreignObject width="0" height="0"><div style="display: table-cell; white-space: nowrap; line-height: 1.5; max-width: 100px; text-align: start;" xmlns="http://www.w3.org/1999/xhtml"><span class="nodeLabel"></span></div></foreignObject></g><g class="label attribute-type" transform="translate(-102.20833587646484, 73.5)" style=""><foreignObject width="65.30000305175781" height="24"><div style="display: table-cell; white-space: nowrap; line-height: 1.5; max-width: 178px; text-align: start;" xmlns="http://www.w3.org/1999/xhtml"><span class="nodeLabel"><p>VARCHAR</p></span></div></foreignObject></g><g class="label attribute-name" transform="translate(-10.275001525878906, 73.5)" style=""><foreignObject width="39.69999694824219" height="24"><div style="display: table-cell; white-space: nowrap; line-height: 1.5; max-width: 142px; text-align: start;" xmlns="http://www.w3.org/1999/xhtml"><span class="nodeLabel"><p>email</p></span></div></foreignObject></g><g class="label attribute-keys" transform="translate(84.07500457763672, 73.5)" style=""><foreignObject width="0" height="0"><div style="display: table-cell; white-space: nowrap; line-height: 1.5; max-width: 100px; text-align: start;" xmlns="http://www.w3.org/1999/xhtml"><span class="nodeLabel"></span></div></foreignObject></g><g class="label attribute-comment" transform="translate(127.20833587646484, 73.5)" style=""><foreignObject width="0" height="0"><div style="display: table-cell; white-space: nowrap; line-height: 1.5; max-width: 100px; text-align: start;" xmlns="http://www.w3.org/1999/xhtml"><span class="nodeLabel"></span></div></foreignObject></g><g class="label attribute-type" transform="translate(-102.20833587646484, 116.25)" style=""><foreignObject width="66.93333435058594" height="24"><div style="display: table-cell; white-space: nowrap; line-height: 1.5; max-width: 179px; text-align: start;" xmlns="http://www.w3.org/1999/xhtml"><span class="nodeLabel"><p>BOOLEAN</p></span></div></foreignObject></g><g class="label attribute-name" transform="translate(-10.275001525878906, 116.25)" style=""><foreignObject width="63.23333740234375" height="24"><div style="display: table-cell; white-space: nowrap; line-height: 1.5; max-width: 167px; text-align: start;" xmlns="http://www.w3.org/1999/xhtml"><span class="nodeLabel"><p>is_active</p></span></div></foreignObject></g><g class="label attribute-keys" transform="translate(84.07500457763672, 116.25)" style=""><foreignObject width="0" height="0"><div style="display: table-cell; white-space: nowrap; line-height: 1.5; max-width: 100px; text-align: start;" xmlns="http://www.w3.org/1999/xhtml"><span class="nodeLabel"></span></div></foreignObject></g><g class="label attribute-comment" transform="translate(127.20833587646484, 116.25)" style=""><foreignObject width="0" height="0"><div style="display: table-cell; white-space: nowrap; line-height: 1.5; max-width: 100px; text-align: start;" xmlns="http://www.w3.org/1999/xhtml"><span class="nodeLabel"></span></div></foreignObject></g><g class="divider"><path d="M-114.70833587646484 -106.875 C-23.531322818024904 -106.875, 67.64569024041504 -106.875, 114.70833587646484 -106.875 M-114.70833587646484 -106.875 C-51.89939012347153 -106.875, 10.90955562952179 -106.875, 114.70833587646484 -106.875" stroke="#9370DB" stroke-width="1.3" fill="none" stroke-dasharray="0 0"/></g><g class="divider"><path d="M-22.775001525878906 -106.875 C-22.775001525878906 -40.52921569821022, -22.775001525878906 25.816568603579555, -22.775001525878906 149.625 M-22.775001525878906 -106.875 C-22.775001525878906 -29.051238383489263, -22.775001525878906 48.772523233021474, -22.775001525878906 149.625" stroke="#9370DB" stroke-width="1.3" fill="none" stroke-dasharray="0 0"/></g><g class="divider"><path d="M71.57500457763672 -106.875 C71.57500457763672 -32.40867175628355, 71.57500457763672 42.057656487432894, 71.57500457763672 149.625 M71.57500457763672 -106.875 C71.57500457763672 -43.552022981976414, 71.57500457763672 19.770954036047172, 71.57500457763672 149.625" stroke="#9370DB" stroke-width="1.3" fill="none" stroke-dasharray="0 0"/></g><g class="divider"><path d="M-114.70833587646484 -106.875 C-56.517913973428655 -106.875, 1.6725079296075336 -106.875, 114.70833587646484 -106.875 M-114.70833587646484 -106.875 C-31.13090750106548 -106.875, 52.446520874333885 -106.875, 114.70833587646484 -106.875" stroke="#9370DB" stroke-width="1.3" fill="none" stroke-dasharray="0 0"/></g></g><g class="label edgeLabel" id="entity-access-0---entity-access-0---1" transform="translate(824.8833129890263, 515.125)"><rect width="0.1" height="0.1"/><g class="label" style="" transform="translate(0, 0)"><rect/><foreignObject width="0" height="0"><div style="display: table-cell; white-space: nowrap; line-height: 1.5; max-width: 10px; text-align: center;" xmlns="http://www.w3.org/1999/xhtml"><span class="nodeLabel"></span></div></foreignObject></g></g><g class="label edgeLabel" id="entity-access-0---entity-access-0---2" transform="translate(864.9083129893988, 723.0500000007451)"><rect width="0.1" height="0.1"/><g class="label" style="" transform="translate(0, 0)"><rect/><foreignObject width="0" height="0"><div style="display: table-cell; white-space: nowrap; line-height: 1.5; max-width: 10px; text-align: center;" xmlns="http://www.w3.org/1999/xhtml"><span class="nodeLabel"></span></div></foreignObject></g></g></g></g></g></svg>